<?xml version="1.0" encoding="utf-8"?>
<!-- Generator: Adobe Illustrator 21.1.0, SVG Export Plug-In . SVG Version: 6.00 Build 0)  -->
<svg version="1.1" id="Capa_1" xmlns="http://www.w3.org/2000/svg" xmlns:xlink="http://www.w3.org/1999/xlink" x="0px" y="0px"
	 width="1119px" height="723px" viewBox="0 0 1119 723" style="enable-background:new 0 0 1119 723;" xml:space="preserve">
<style type="text/css">
	.st0{fill:#FEFEFE;}
	.st1{fill:#C1C0C0;}
	.st2{fill:#D7271F;}
	.st3{fill:#FE847C;}
	.st4{fill:#201B18;}
	.st5{fill:#FC9896;}
</style>
<g>
	<polygon class="st0" points="710.9,371.7 542.7,413.9 470.4,145.1 641,101.7 	"/>
	<g>
		<path class="st1" d="M640.9,101.8c-10.4,2.6-20.7,5.8-31.4,7.8c-2.5-6.4-3.5-13.3-5.8-19.8c-0.4-0.1-0.7-0.2-1-0.1
			c-6.1,1.5-12.2,3-18.4,4.6c-1.7,0.4-1.3,1.7-1,2.9c5.8,21.3,10.5,42.8,16.2,64.1c6.2,23,12.1,46.1,17,69.5c0.9,4.3,1.1,8.6-2,12.3
			c-2.7,3.3-6.4,4.1-10.4,3.2c-4.6-1.1-7.2-4.4-8.5-8.9c-5.2-18.8-9.2-38-13.8-57c-2.9-12.2-5.4-24.5-8.8-36.5
			c-0.4-1.5-0.7-2.7-2.7-2.1c-6.6,2-13.2,4-19.9,6c-1.4,0.4-1.9,1.2-1.6,2.7c1.3,6.2,2.3,12.4,3.8,18.5
			c5.2,21.1,10.4,42.2,14.8,63.5c1,4.6,0.2,8.4-2.4,12.2c-3.4,4.9-9.7,7.4-16.2,6.1c-6.3-1.2-10.9-5.5-12.2-11.3
			c-0.6-2.7-1.3-5.5-2-8.2c-4.4-17.1-8.6-34.2-12.7-51.4c-1.8-7.9-4.2-15.6-6.4-23.8c-8.6,2-16.9,4-25.3,6c0.2,0.9,0.3,1.5,0.5,2.1
			c3.5,10.6,6.2,21.4,8.2,32.3c1,5.3,1.9,10.6-2.1,15.5c-4,4.9-8.9,7.7-15.2,6.4c-6.5-1.4-12.6-3.8-13.4-12
			c-0.1-1.6-0.7-3.1-1.1-4.7c-2.4-10.4-4.8-20.9-7.1-31.4c-0.3-1.3-0.5-2.4-2.2-2.1c-6.5,1.2-12.9,2.5-19.3,3.7
			c-0.5,1.3-0.1,2.3,0.1,3.3c2.7,12.1,5.5,24.2,7.7,36.4c1,5.4-1.3,9.7-6.1,11.1c-4.8,1.4-9.3-0.9-11.2-6.1
			c-2.2-6-4.2-12.1-6.3-18.2c-11.3-32.3-17.2-65.9-21.1-99.8c-1.6-14-2.7-28.1-3.4-42.3c-0.6-10.8,0.4-21.4,2.8-31.9
			c1.2-0.2,2.5,0.5,3.5-0.6c70.9,0,141.8,0,212.7,0c1,0.8,2,0.8,3,0c0.2,0,0.4,0,0.6,0c1.8,3.2,4.5,5.6,6.9,8.3
			c6.9,7.9,13.5,16.2,17.3,26.2c4.4,11.8,5.3,23.7-0.8,35.4C643,96.4,642,99.1,640.9,101.8z"/>
		<path class="st2" d="M401.2,24.6c-2.4,10.5-3.4,21.1-2.8,31.9c0.7,14.1,1.7,28.2,3.4,42.3c4,33.9,9.8,67.4,21.1,99.8
			c2.1,6.1,4.1,12.2,6.3,18.2c1.9,5.1,6.4,7.4,11.2,6.1c4.8-1.4,7.1-5.7,6.1-11.1c-2.3-12.2-5.1-24.3-7.7-36.4
			c-0.2-1-0.5-1.9-0.1-3.3c6.3-1.2,12.8-2.4,19.3-3.7c1.7-0.3,1.9,0.8,2.2,2.1c2.3,10.5,4.7,20.9,7.1,31.4c0.4,1.6,0.9,3.1,1.1,4.7
			c0.7,8.2,6.8,10.6,13.4,12c6.3,1.4,11.2-1.5,15.2-6.4c4-4.8,3.1-10.1,2.1-15.5c-2.1-10.9-4.7-21.7-8.2-32.3
			c-0.2-0.6-0.3-1.1-0.5-2.1c8.4-2,16.7-4,25.3-6c2.2,8.1,4.5,15.9,6.4,23.8c4,17.2,8.3,34.3,12.7,51.4c0.7,2.7,1.4,5.4,2,8.2
			c1.3,5.8,5.9,10.1,12.2,11.3c6.5,1.2,12.8-1.2,16.2-6.1c2.6-3.8,3.4-7.6,2.4-12.2c-4.4-21.3-9.6-42.4-14.8-63.5
			c-1.5-6.1-2.5-12.4-3.8-18.5c-0.3-1.5,0.2-2.2,1.6-2.7c6.6-1.9,13.3-3.9,19.9-6c2-0.6,2.3,0.7,2.7,2.1c3.5,12,5.9,24.3,8.8,36.5
			c4.6,19,8.6,38.1,13.8,57c1.2,4.5,3.8,7.8,8.5,8.9c3.9,0.9,7.6,0.1,10.4-3.2c3.1-3.7,2.9-8,2-12.3c-4.9-23.3-10.8-46.4-17-69.5
			c-5.7-21.3-10.4-42.8-16.2-64.1c-0.3-1.2-0.7-2.5,1-2.9c6.1-1.6,12.2-3.1,18.4-4.6c0.3-0.1,0.6,0.1,1,0.1
			c2.3,6.5,3.3,13.4,5.8,19.8c3.3,14,6.4,28.1,9.8,42.1c7.1,28.8,13.6,57.6,20.3,86.5c0.8,3.6-1.2,6.3-2.7,8.9
			c-8.2,14-21.7,20.3-37.9,17.4c-5.6-1-9.8-4.4-13.8-8c-1.3-1.1-2.5-2.3-3.9-3.6c-4,4.9-7.7,9.6-12.4,13.7
			c-10.9,9.5-28.7,8.9-40.5,0.2c-1.1-0.8-1.6-2-2-3.2c-2.2-6.1-4.4-12.3-6.6-18.4c-2.2-6.1-4.1-12.3-5.7-19.7
			c-5.6,5.9-11.4,10.7-18.4,13.6c-6.1,1.9-12.2,3-18.6,1.9c-5.1-0.9-9.9-2.3-14.6-4.5c-1.6-0.8-2.7-1.1-4,0.8
			c-1.5,2.3-3.6,4.3-6.1,5.7c-8.4,5.2-17.4,5.3-26.7,3.4c-6.7-1.4-10.5-5-12.7-11.6c-8.2-24.1-13.6-48.8-19.1-73.5
			c-1.2-5.4-1.7-11-3.7-16.3c-1.3-29.6-0.3-59.3-0.7-89c-0.1-10-0.1-20-0.2-30.1c0-0.7-0.2-1.4-0.3-2c4,0,8,0,12.1,0
			C401.1,24.2,401.1,24.4,401.2,24.6z"/>
		<path class="st1" d="M715.1,24c0,1.9,0.1,3.8,0.1,5.7c0,105.4,0,210.8,0,316.3c0,4.1,0,4.1-4,4.1c-6.1,0-6.1,0-7.6-6.1
			c-9.4-36.9-18.9-73.8-28.3-110.7c-7.8-30.5-15.7-61-23.5-91.5c-0.3-1.3-0.9-2.4-1.7-3.4c0.9,0.1,1.2-0.6,1.6-1.2
			c7.2-10.9,13.8-22.1,18.2-34.5c6-17.2,5.7-34.1-1.7-50.9c-4.4-10-10.6-18.8-17.5-27.2c1.4-0.4,3,0.5,4.2-0.6c0.4,0,0.8,0,1.2,0
			c0.8,0.8,1.6,0.8,2.4,0c0.6,0,1.2,0,1.8,0c1.6,0.9,3.2,0.9,4.8,0C681.7,24,698.4,24,715.1,24z"/>
		<path class="st2" d="M650.6,24.6c6.9,8.4,13,17.2,17.5,27.2c7.5,16.7,7.8,33.7,1.7,50.9c-4.3,12.4-10.9,23.6-18.2,34.5
			c-0.4,0.6-0.7,1.3-1.6,1.2c-3-12.2-5.7-24.5-9.2-36.6c1.2-2.7,2.1-5.4,3.5-8c6.2-11.7,5.2-23.6,0.8-35.4
			c-3.7-10-10.3-18.2-17.3-26.2c-2.4-2.7-5.1-5.1-6.9-8.3c9.6,0,19.3,0,28.9,0C650.2,24.2,650.4,24.4,650.6,24.6z"/>
		<path class="st3" d="M1103,710.3c0.1,0.2,0.1,0.4,0.2,0.7c-363.4,0-726.8,0-1090.2,0c-0.1-0.2-0.1-0.3-0.1-0.5
			c1.1,0,2.2-0.1,3.3-0.1c360.5,0,721.1,0,1081.6,0C1099.6,710.4,1101.3,710.3,1103,710.3z"/>
		<path class="st4" d="M10,650.7c0.8-0.2,0.6-0.9,0.7-1.5c2-7.6,7.8-12,15.7-11.7c8,0.3,13.2,4.9,14.6,12.9c0.4,2.3,0.4,4.6,0.1,6.9
			c-1.3,8.3-6.2,12.8-14.3,13.2c-8.5,0.4-14-3.5-16.1-11.7c-0.1-0.5,0.1-1.3-0.7-1.5C10,655.2,10,652.9,10,650.7z M32.9,653.9
			c0-2.2-0.3-4.4-1.4-6.4c-1.3-2.4-3.2-3.9-6-3.7c-2.8,0.1-4.7,1.7-5.7,4.2c-1.7,4.2-1.6,8.4,0.3,12.5c1.1,2.4,3,3.7,5.7,3.7
			c2.6,0.1,4.3-1.2,5.6-3.4C32.5,658.7,32.8,656.3,32.9,653.9z"/>
		<path class="st4" d="M1105,664c-4.7,6.6-11.5,8.2-22.4,5.2c0-2.1,0.1-4.3,0.6-6.7c2,0.5,3.7,1.1,5.6,1.5c1.5,0.3,3,0.3,4.5,0
			c1.7-0.3,3.2-0.9,3.4-2.9c0.2-1.7-1.2-2.4-2.4-3c-1.8-0.9-3.7-1.6-5.5-2.3c-5.1-2.1-7-4.9-6.6-9.5c0.4-4.1,3.6-7.2,8.4-8.2
			c4.4-0.9,8.7-0.3,13.3,0.8c-0.2,2-0.5,3.9-0.7,6.1c-2.9-1-5.8-1.5-8.7-1.3c-1.7,0.1-3.3,0.5-3.6,2.5c-0.3,1.9,1.3,2.6,2.6,3.2
			c1.4,0.6,2.8,1.1,4.2,1.5c3.1,0.9,5.5,2.7,7.4,5.2C1105,658.8,1105,661.4,1105,664z"/>
		<path class="st0" d="M665.1,24c-1.6,0.9-3.2,0.9-4.8,0C661.8,24,663.5,24,665.1,24z"/>
		<path class="st0" d="M650.6,24.6c-0.2-0.2-0.4-0.4-0.6-0.6c1.6,0,3.2,0,4.8,0C653.5,25.1,652,24.2,650.6,24.6z"/>
		<path class="st0" d="M401.2,24.6c-0.1-0.2-0.1-0.4-0.1-0.6c1.2,0,2.4,0,3.6,0C403.7,25,402.4,24.4,401.2,24.6z"/>
		<path class="st0" d="M620.5,24c-1,0.8-2,0.8-3,0C618.5,24,619.5,24,620.5,24z"/>
		<path class="st0" d="M658.4,24c-0.8,0.8-1.6,0.8-2.4,0C656.8,24,657.6,24,658.4,24z"/>
		<path class="st4" d="M522.2,480.3c0-39.7,0-79.4,0-119c0.4-0.2,0.6-0.4,0.7-0.4c5.6-0.2,5.6-0.2,7.1,5.2
			c4.1,15,8.1,30.1,12.2,45.1c0.2,0.8,0.5,1.5,0.8,2.5c16.3-4,32.6-8,49-12.1c0,63.7,0,127.1,0,190.8c-1.1,0-2.1,0-3,0
			c-21.2,0-42.4-0.1-63.6,0.1c-2.5,0-3.7-0.9-4.8-3c-20.4-37.8-40.9-75.6-61.3-113.5c-0.3-0.6-0.6-1.2-1.5-1.7
			c0,39.3,0,78.5,0,117.9c-24.5,0-48.7,0-73.1,0c0-77,0-154,0-231.2c24.2,0,48.5,0,72.9,0c21.2,39.7,42.5,79.5,63.8,119.3
			C521.7,480.4,521.9,480.4,522.2,480.3z"/>
		<path class="st4" d="M260,363.1c22.1-0.1,40.6,3.3,57.3,13.6c18.2,11.2,31.9,26.5,40.4,46.2c10.1,23.3,12.4,47.6,9.7,72.7
			c-2.5,24-10.8,45.4-26.8,63.6c-13.2,15-29.6,25-49,29.6c-27.7,6.5-54.8,4.8-80.3-8.8c-25.6-13.7-41.4-35.6-49.5-63.2
			c-5.3-18.1-6.1-36.7-4.3-55.4c2.1-21.7,8.9-41.6,22.2-59c16.2-21.2,37.3-34.4,64-38.1C250.1,363.5,256.4,363.2,260,363.1z
			 M228.5,475.9c0.1,11.4,2.1,20.6,6.9,29c8.9,15.8,27.1,21.7,42.5,13.7c7.9-4.1,12.7-10.9,15.7-19c6.7-17.7,6.7-35.1-4.4-51.3
			c-11.1-16.2-33.5-18.7-47.7-5.1C231.9,452.6,228.8,464.7,228.5,475.9z"/>
		<path class="st4" d="M938.6,425.2c-21.7,0-43.3,0-65.1,0c0,7.9,0,15.7,0,23.9c18.9,0,37.9,0,57.1,0c0,18.4,0,36.3,0,54.5
			c-18.9,0-37.9,0-57,0c0,9,0,17.6,0,26.7c21.6,0,43.3,0,65.3,0c0.4,20.9,0.7,41.3,1,61.9c-47.1,0-94,0-141,0c0-77.1,0-154,0-231.2
			c46.5,0,93,0,139.7,0C938.6,382.4,938.6,403.6,938.6,425.2z"/>
		<path class="st4" d="M678.8,524.5c0,22.8,0,45.3,0,67.9c-24.9,0-49.6,0-74.2,0c-0.6-1-0.3-2-0.3-2.9c0-62.4,0-124.7-0.1-187.1
			c0-3,0.9-4,3.7-4.7c33.5-8.2,67-16.5,100.4-24.7c0.8-0.2,1.6-0.2,2.3-1c-0.9-3.5-1.8-7.1-2.8-11c8.3,0.1,16.3,0.7,24.2,2.3
			c15.7,3.3,28,11.3,36.2,25.2c5,8.5,9,17.4,11.5,26.9c6.9,26.1,5.6,51.8-5,76.7c-6.2,14.5-18.2,22.3-32.6,27.1
			c-12.4,4.2-25.3,5.1-38.2,5.2C695.7,524.5,687.4,524.5,678.8,524.5z M679,424.3c0,13.4,0,26.4,0,39.6c5.9,0,11.6,0.1,17.3,0
			c2.4-0.1,4.7-0.8,6.8-2c8.2-4.7,12-15.2,8.8-24.8c-2.5-7.7-8-12.4-15.6-12.7C690.7,424.1,685,424.3,679,424.3z"/>
		<path class="st1" d="M390.2,145.1c1.9,5.3,2.4,10.9,3.7,16.3c5.6,24.7,10.9,49.5,19.1,73.5c2.2,6.5,6,10.2,12.7,11.6
			c9.3,1.9,18.3,1.7,26.7-3.4c2.4-1.5,4.5-3.4,6.1-5.7c1.3-1.9,2.4-1.6,4-0.8c4.6,2.3,9.5,3.7,14.6,4.5c6.4,1.1,12.6,0,18.6-1.9
			c1.1,6.2,3,12.2,4.7,18.3c6.6,24.6,13.4,49.2,20.1,73.8c1.6,6.1,3.3,12.1,4.9,18.1c-1.1,1.2-2.3,0.7-3.3,0.7
			c-43,0-85.9,0-128.9,0.1c-2.7,0-3.6-0.7-3.5-3.5c0.1-66.2,0.1-132.3,0.1-198.5C389.6,147.1,389.2,145.9,390.2,145.1z"/>
		<path class="st2" d="M1103,710.3c-1.7,0-3.4,0.1-5.1,0.1c-360.5,0-721.1,0-1081.6,0c-1.1,0-2.2,0.1-3.3,0.1
			c-0.1-0.2-0.2-0.4-0.3-0.6c0.3-0.3,0.3-0.5,0-0.8c0-0.6,0-1.1,0-1.7c0.4-0.3,0.4-0.5,0-0.7c0-1,0-1.9,0-2.9c0.7-0.9,0.2-2,0.5-3
			c1.7,0,3.4-0.1,5.1-0.1c360.4,0,720.7,0,1081.1,0c1.1,0,2.2-0.1,3.3-0.2C1103.7,703.8,1103,707.1,1103,710.3z"/>
		<path class="st4" d="M1028.4,669.9c-1.5,0-2.5,0-3.5,0c-5.3,0-5.3,0-7.1-5c-0.4-1.3-1-1.8-2.3-1.7c-1.4,0.1-2.8,0.2-4.2,0
			c-4.2-0.6-7.5,0.1-8,5.2c-0.1,1.2-0.9,1.6-2.1,1.6c-4.5-0.1-9-0.1-13.5,0c-1.2,0-1.8-0.3-2.1-1.6c-0.5-2.1-1.3-4.2-2-6.3
			c-1.4-4-2.3-4.5-6.9-4.2c0,3.9,0,7.8,0,11.9c-2.8,0-5.4,0-8.2,0c0-10.3,0-20.6,0-31.1c6.1,0.2,12.1-0.6,18.1,0.6
			c4.3,0.9,6.3,3.1,6.6,6.7c0.4,3.8-1.2,6.3-5.4,8.3c3.9,4.1,4.3,9.7,6.7,14.6c1.3-1.8,1.8-3.9,2.5-5.8c2.9-7.4,5.8-14.7,8.5-22.1
			c0.7-1.9,1.6-2.3,3.5-2.3c7.6,0.1,7.6,0,10.3,7.2C1022.3,653.6,1025.3,661.6,1028.4,669.9z M976.8,651.9c2.7-0.4,5.6,0.7,7.5-1.8
			c1-1.4,1-3.2-0.1-4.5c-2-2.4-4.8-1.5-7.4-1.6C976.8,646.8,976.8,649.2,976.8,651.9z M1007.3,657.2c2.7,0,5.2,0,8,0
			c-1.3-3.8-2.5-7.5-3.9-11.7c-1.2,3.5-2.3,6.3-3.2,9.1C1007.8,655.3,1007.6,656.1,1007.3,657.2z"/>
		<path class="st4" d="M367.1,648.5c0,7,0,14,0,21.2c-2.5,0-4.8,0-7.4,0c0-10.3,0-20.6,0-31.2c3,0,6.1,0.1,9.2,0
			c1.6,0,1.7,1.2,2.1,2.1c3.1,6.2,6.1,12.5,9.8,18.6c0-6.8,0-13.6,0-20.5c2.7,0,5,0,7.5,0c0,10.4,0,20.7,0,31.2c-3.1,0-6.1,0-9.1,0
			c-1.5,0-1.7-1.2-2.2-2.1c-2.9-6-5.7-11.9-8.5-17.9c-0.3-0.6-0.3-1.4-1.1-1.7c-0.1-0.5-0.2-0.9-0.3-1.7
			C366.7,647.5,366.8,648,367.1,648.5z"/>
		<path class="st4" d="M160,669.9c-3,0-5.9-0.1-8.8,0c-1.5,0.1-1.7-1.1-2.2-2c-3.2-6.6-6.5-13.3-10.1-20.7c0,8,0,15.2,0,22.5
			c-2.6,0-5,0-7.5,0c0-10.4,0-20.6,0-31.2c3.2,0,6.5,0,9.8,0c1,0,1.2,0.9,1.5,1.6c3.2,6.8,6.5,13.5,9.9,20.6c0-7.4,0-14.6,0-22
			c2.6,0,4.9,0,7.4,0C160,649.1,160,659.4,160,669.9z"/>
		<path class="st4" d="M233.7,660.3c0-7.1,0-14.2,0-21.5c2.4,0,4.6,0,7.1,0c0,10.2,0,20.5,0,31.2c-3,0-5.9,0-8.9,0
			c-1.5,0-1.7-1.2-2.1-2.1c-3.3-6.6-6.5-13.3-10-20.5c0,7.9,0,15.1,0,22.5c-2.4,0-4.7,0-7.2,0c0-10.3,0-20.5,0-31.2
			c3.1,0,6.2,0,9.4,0c1.4,0,1.4,1.3,1.8,2.1c3.2,6.5,6.3,13.1,9.4,19.6C233.4,660.3,233.6,660.3,233.7,660.3z"/>
		<path class="st5" d="M1102.6,700.6c-1.1,0.1-2.2,0.2-3.3,0.2c-360.4,0-720.7,0-1081.1,0c-1.7,0-3.4,0.1-5.1,0.1
			c-0.2,0-0.3-0.1-0.5-0.1c0.6-1.1,1.6-0.6,2.4-0.6c3-0.1,6,0,9,0c358.2,0,716.3,0,1074.5,0C1099.9,700.2,1101.3,699.7,1102.6,700.6
			z"/>
		<path class="st4" d="M465.7,669.9c0-10.6,0-20.8,0-31.4c5.7,0.1,11.4-0.4,16.9,0.4c9.8,1.4,14.9,9.8,12.3,19.9
			c-1.6,6.1-5.9,9.8-12.3,10.7C477,670.1,471.5,669.9,465.7,669.9z M474.2,663.4c9.2,0.4,12.8-2.4,12.6-10.1
			c-0.2-6.7-4.3-9.5-12.6-8.7C474.2,650.8,474.2,657,474.2,663.4z"/>
		<path class="st4" d="M354.7,654.2c0,12.4-9.2,19.2-21.1,15.7c-6.1-1.8-9.7-7.1-10.1-15.2c-0.4-7.3,3-13.4,8.7-15.8
			c6.3-2.7,14.1-1.3,18.4,3.3C353.4,645.1,354.7,649.1,354.7,654.2z M346.2,654.1c0-2.2-0.2-4.4-1.2-6.4c-1.2-2.4-3-4-5.9-4
			c-2.8,0-4.8,1.5-5.9,4c-1.8,4.3-1.9,8.8,0.3,13c2.5,4.8,8.4,4.7,11.1,0C345.9,658.7,346.2,656.5,346.2,654.1z"/>
		<path class="st4" d="M598.7,654c0-7.7,3.3-13.1,9.3-15.3c6.5-2.4,13.8-0.9,18,3.8c4.8,5.3,5.1,16.5,0.7,22.5
			c-3.8,5.2-12.7,7.2-19.5,4.3C601.8,667,598.7,661.5,598.7,654z M621.4,653.7c-0.2-1.5-0.1-3.5-0.9-5.4c-1.1-2.7-2.9-4.3-5.8-4.5
			c-2.8-0.2-4.9,1.1-6.1,3.6c-2.2,4.6-2.2,9.3,0.3,13.8c1.3,2.3,3.4,3.3,6,3c2.6-0.2,4.2-1.6,5.3-3.9
			C621.1,658.4,621.3,656.3,621.4,653.7z"/>
		<path class="st4" d="M750.7,653.3c-0.1,13.2-8.6,19.7-20.6,16.7c-6.5-1.7-10.2-6.9-10.5-15.3c-0.2-6.6,1.8-12.3,8.2-15.4
			c6.1-3,13.6-1.9,18.5,2.6C750,645.1,750.6,649.5,750.7,653.3z M742.4,653.5c0-1.5-0.2-3.5-1-5.3c-1.2-2.7-3.2-4.4-6.2-4.4
			c-2.9,0-5,1.6-6,4.3c-1.6,4.3-1.6,8.6,0.4,12.8c1.1,2.3,3,3.4,5.6,3.4c2.5,0,4.4-1.1,5.7-3.3C742,658.8,742.4,656.4,742.4,653.5z"
			/>
		<path class="st4" d="M963.4,654.2c-0.1,12.4-9.2,19.2-21.1,15.7c-6.3-1.9-10-7.6-10-15.8c-0.1-11.4,8.2-18.3,19.4-16.1
			C959.2,639.5,963.5,645.4,963.4,654.2z M954.9,654c0.1-1.8-0.1-3.7-0.8-5.5c-1-2.8-2.9-4.6-5.9-4.7c-2.9-0.2-5.1,1.3-6.2,3.9
			c-1.9,4.3-1.8,8.7,0.2,13c1.2,2.5,3.3,3.6,6.1,3.5c2.7-0.1,4.4-1.6,5.5-4C954.7,658.3,955,656.2,954.9,654z"/>
		<path class="st4" d="M589.3,654.2c3.9,4.6,4.7,10.3,7,15.7c-2.7,0-5,0-7.2,0c-1.1,0-1.6-0.3-1.9-1.4c-0.6-2.1-1.4-4.2-2.1-6.2
			c-1.4-4.3-1.9-4.6-6.8-4.5c0,3.9,0,7.9,0,12c-2.8,0-5.4,0-8.2,0c0-10.3,0-20.5,0-31.1c5.8-0.1,11.5-0.5,17.3,0.3
			c4.5,0.7,6.7,2.8,7.1,6.1C595.1,649.6,593.8,652,589.3,654.2z M578.4,644.1c0,2.7,0,5.1,0,7.6c5.5,0.6,7.9-0.4,8.2-3.3
			C586.8,645,584.7,643.8,578.4,644.1z"/>
		<path class="st4" d="M424.6,669.8c-3,0-5.8,0-8.7,0c-1.3-1.9-0.8-5.5-2.8-6.2c-2.9-1-6.3-0.3-9.5-0.4c-4.6,0-2.4,4.9-5,6.6
			c-2.3,0-4.9,0-7.7,0c3.1-8.3,6.2-16.5,9.3-24.6c2.5-6.7,2.5-6.6,9.7-6.8c2.3-0.1,3.3,0.6,4,2.8c3.1,8.7,6.5,17.2,9.7,25.9
			C424,668,424.2,668.8,424.6,669.8z M403.5,657.2c2.8,0,5.3,0.3,8-0.2c-1.3-3.9-2.5-7.4-3.9-11.6
			C406.1,649.7,404.8,653.4,403.5,657.2z"/>
		<path class="st4" d="M276.8,669.9c-1.1,0-2.3,0-3.5,0c-4.8,0-4.9,0-6.4-4.7c-0.5-1.5-1.1-2.2-2.7-2c-1.3,0.1-2.6,0.2-3.9,0
			c-4.2-0.6-7.5,0.1-8,5.2c-0.1,1.2-1,1.6-2.1,1.5c-2-0.1-4,0-5.9,0c-0.6-0.8-0.2-1.4,0.1-2c3.4-9.1,6.9-18.1,10.3-27.2
			c0.6-1.5,1.2-2.2,3-2.2c7.9-0.1,7.9-0.1,10.8,7.4c2.7,7,5.4,14,8,21C276.5,667.8,277.2,668.7,276.8,669.9z M264.1,657.2
			c-1.3-3.9-2.5-7.5-4-11.9c-1.5,4.5-2.8,8.1-4,11.9C258.9,657.2,261.2,657.2,264.1,657.2z"/>
		<path class="st4" d="M196.5,669.9c-1.7,0-2.8,0-3.9,0c-4.9,0-5,0-6.6-4.8c-0.5-1.6-1.3-2-2.8-1.9c-2.3,0.1-4.6,0.2-6.9,0
			c-2.5-0.3-3.7,0.7-4.1,3.1c-0.3,1.2-0.9,2.4-1.3,3.7c-2,0-3.9,0-5.8,0c-0.6,0-1.2-0.1-1.8-0.1c-0.4-1,0.1-1.8,0.5-2.6
			c3.3-8.8,6.7-17.6,10-26.4c0.6-1.6,1.3-2.3,3.2-2.3c7.8,0,7.8-0.1,10.6,7.2C190.3,653.6,193.3,661.6,196.5,669.9z M183.3,657.2
			c-1.3-3.8-2.5-7.4-4-11.8c-1.5,4.5-2.8,8.1-4,11.8C178.1,657.2,180.5,657.2,183.3,657.2z"/>
		<path class="st4" d="M1076,650.4c0,2.3,0,4.1,0,6.1c-4.1,0-8.1,0-12.3,0c0,2.4,0,4.6,0,7.1c4.5,0,8.9,0,13.5,0c0,2.2,0,4.1,0,6.1
			c-7.3,0-14.6,0-22,0c0-10.4,0-20.6,0-31.1c7.2,0,14.4,0,21.7,0c0.4,1.8,0.2,3.4,0.1,5.5c-4.4,0-8.8,0-13.1,0
			c-0.7,2.2-0.3,4.1-0.4,6.3C1067.7,650.4,1071.8,650.4,1076,650.4z"/>
		<path class="st4" d="M858,656.5c0,2.7,0,4.9,0,7.3c4.6,0,9.1,0,13.7,0c0,2.1,0,3.9,0,6c-7.3,0-14.5,0-22,0c0-10.3,0-20.6,0-31
			c7.1,0,14.2,0,21.5,0c0,1.7,0,3.4,0,5.4c-4.3,0-8.6,0-13,0c-0.5,2.1-0.2,4.1-0.2,6.4c4.2,0,8.3,0,12.6,0c0,2.1,0,3.9,0,5.9
			C866.4,656.5,862.3,656.5,858,656.5z"/>
		<path class="st4" d="M666,638.7c7.2,0,14.2,0,21.4,0c0.4,1.8,0.2,3.5,0.1,5.5c-4.3,0-8.5,0-13,0c0,2.2,0,4.2,0,6.4
			c4.1,0,8.1,0,12.3,0c0,2.1,0,3.9,0,6c-4.1,0-8.2,0-12.4,0c0,2.5,0,4.7,0,7.2c4.6,0,9,0,13.6,0c0,2.2,0,4.1,0,6.1
			c-7.3,0-14.5,0-22,0C666,659.6,666,649.3,666,638.7z"/>
		<path class="st4" d="M508.6,644.2c0,2.2,0,4.1,0,6.3c4,0,8,0,12.2,0c0.6,2.1,0.2,4,0.3,6c-4.2,0-8.2,0-12.3,0
			c-0.6,2.4-0.3,4.7-0.2,7.2c4.6,0,9,0,13.6,0c0,2.2,0,4,0,6.1c-7.4,0-14.7,0-22.1,0c0-10.4,0-20.7,0-31.1c7.3,0,14.5,0,21.8,0
			c0,1.8,0,3.5,0,5.5C517.4,644.2,513.1,644.2,508.6,644.2z"/>
		<path class="st4" d="M819.2,663.7c0,2.3,0,4.1,0,6.2c-3.7,0-7.4,0-11.1,0c-3.6,0-7.2,0-11,0c0-10.5,0-20.7,0-31.2
			c7.1,0,14.1,0,21.4,0c0,1.7,0,3.4,0,5.5c-4.3,0-8.6,0-13,0c0,2.2,0,4.2,0,6.3c4.1,0,8.1,0,12.1,0c0.6,2,0.3,3.9,0.2,5.9
			c-4.1,0-8.1,0-12.2,0c-0.6,2.4-0.2,4.7-0.3,7.2C810.1,663.7,814.5,663.7,819.2,663.7z"/>
		<path class="st4" d="M756.3,662.5c3.1,0.9,6,2.1,9.2,1.6c1.7-0.3,3.5-0.6,3.9-2.6c0.4-2.2-1.3-2.9-2.9-3.6c-2.2-1-4.4-1.9-6.6-2.9
			c-3.1-1.4-4.8-3.9-4.9-7.3c-0.1-3.4,1.2-6,4.2-7.8c4.8-3,10-2.4,15.2-1.5c0.7,0.1,1.4,0.3,2.2,0.5c0.4,2-0.1,3.9-0.5,6.1
			c-2.7-0.8-5.3-1.4-7.9-1.2c-1.8,0.1-3.9,0.1-4.2,2.4c-0.3,2.2,1.5,2.8,3.1,3.4c1.7,0.6,3.4,1.2,5.1,1.9c4.3,1.7,6.3,4.5,6.3,8.6
			c-0.1,4.8-2.3,8-6.8,9.5c-5.3,1.8-10.5,0.9-15.8-0.2C755.3,667,755.6,664.8,756.3,662.5z"/>
		<path class="st4" d="M714.5,638.9c-0.3,2.1-0.5,4-0.8,6.1c-3-1-5.9-1.5-8.9-1.2c-1.6,0.2-3.1,0.5-3.4,2.4
			c-0.2,1.8,1.1,2.7,2.6,3.2c2,0.8,4.2,1.5,6.2,2.3c3.6,1.5,5.8,4.1,5.7,8.3c-0.1,4.3-1.8,7.6-5.9,9.3c-5.6,2.2-11.2,1.3-16.9,0
			c0.2-2.3,0.4-4.3,0.6-6.5c2-0.3,3.6,1,5.3,1.2c1.9,0.3,3.8,0.4,5.7-0.1c1.3-0.4,2.4-1.1,2.6-2.6c0.1-1.4-0.8-2.3-1.9-2.8
			c-2.1-1-4.2-1.9-6.3-2.8c-5-2.2-6.8-5-6.2-9.7c0.5-3.9,3.7-6.9,8.4-7.9C705.6,637.2,709.9,637.8,714.5,638.9z"/>
		<path class="st4" d="M541.7,669.8c0-10.4,0-20.6,0-31.3c6.2,0.3,12.4-0.8,18.4,1c4.3,1.3,6,4.8,5.5,10.4c-0.4,4.6-3.4,7.8-8.2,8.5
			c-2.3,0.4-4.7,0.4-7.4,0.6c0,3.6,0,7.1,0,10.7C547.2,669.8,544.7,669.8,541.7,669.8z M550.2,653.1c2.6-0.1,5.3,0.5,6.6-2.2
			c0.8-1.7,0.8-3.5-0.3-5.1c-1.6-2.2-3.9-1.9-6.3-1.7C550.2,647.1,550.2,649.9,550.2,653.1z"/>
		<path class="st4" d="M111.9,639.4c-0.1,2.3,0,4.3-0.9,6.2c-5.4-2.3-10.7-3.3-15.3,1.5c-2.8,2.9-3.1,9.3-0.6,12.7
			c4.3,6,10.2,4.6,16.2,2.8c0.7,2.2,0.4,4.4,0.6,6.7c-6.4,1.6-12.5,2.1-18.6-0.6c-6-2.7-9.3-9.4-8.5-16.8c0.8-7,5.4-12.2,12.4-13.7
			C102.2,637,107,637.6,111.9,639.4z"/>
		<path class="st4" d="M903.3,639.4c-0.2,2.1-0.1,4.1-0.8,6.1c-5.6-2.1-11-3.4-15.6,1.7c-2.6,3-2.8,8.9-0.6,12.5
			c2.4,4.1,6.1,4.7,16.6,3c0.1,2.1,0.3,4.2,0.4,6.5c-6,1.7-11.9,2.1-17.7-0.1c-6.4-2.5-10.1-9-9.5-16.5c0.6-7.6,5-12.8,12.3-14.4
			C893.5,637,898.4,637.6,903.3,639.4z"/>
		<path class="st4" d="M660.1,662.6c0.6,2.3,0.7,4.4,0.6,6.7c-5.3,1.5-10.6,1.9-15.9,0.4c-7.4-2.1-11.4-8.1-11.2-16.8
			c0.2-7.5,4.9-13.1,12.2-14.7c5-1.1,9.9-0.6,14.8,1.2c0.3,2.1-0.4,4-0.5,6.2c-5.9-2.2-11.8-3.7-16.2,2.4c-2.5,3.4-2.2,9.3,0.5,12.4
			C648.8,665.6,654.4,664.3,660.1,662.6z"/>
		<path class="st4" d="M305.1,639.5c-0.3,2.2-0.5,4.1-0.7,6.1c-5.8-2.2-11.4-3.4-15.8,2c-2.6,3.2-2.6,9.1-0.1,12.5
			c4.4,5.8,10.2,4.1,16.2,2.5c0.2,2.3,0.4,4.4,0.6,6.7c-4.8,1.3-9.4,1.8-14.1,0.9c-7.8-1.4-12.7-6.9-13.1-14.6
			c-0.5-8.9,3.5-14.9,11.5-17.1C294.8,636.9,299.9,637.4,305.1,639.5z"/>
		<path class="st4" d="M46.4,638.6c6.8,0,13.5,0,20.4,0c0.2,1.8,0.3,3.6-0.1,5.6c-3.9,0-7.8,0-11.9,0c0,2.3,0,4.3,0,6.6
			c3.8,0,7.4,0,11.1,0c1,2,0.2,3.9,0.6,6.1c-4,0-7.8,0-11.9,0c0,4.5,0,8.6,0,12.9c-2.9,0-5.5,0-8.3,0
			C46.4,659.5,46.4,649.2,46.4,638.6z"/>
		<path class="st4" d="M913.9,644.7c-3,0-5.3,0-7.8,0c-0.7-2-0.3-3.9-0.3-5.9c8,0,15.8,0,23.8,0c0,1.9,0,3.8,0,5.8
			c-2.5,0-4.9,0-7.6,0c0,8.5,0,16.8,0,25.2c-2.8,0-5.3,0-8.1,0C913.9,661.6,913.9,653.3,913.9,644.7z"/>
		<path class="st4" d="M833,663.5c4.4,0,8.3,0,12.5,0c0.4,2.2,0.3,4.1,0.2,6.2c-6.9,0-13.7,0-20.7,0c0-10.3,0-20.6,0-31
			c2.6,0,5.2,0,8,0C833,646.9,833,655,833,663.5z"/>
		<path class="st4" d="M447.5,663.5c0,2.3,0,4.2,0,6.3c-6.9,0-13.8,0-20.8,0c0-10.3,0-20.6,0-31c2.7,0,5.3,0,8.3,0
			c0,8.2,0,16.4,0,24.8C439.2,663.5,443.2,663.5,447.5,663.5z"/>
		<path class="st4" d="M1030.3,669.7c0-10.4,0-20.6,0-31c2.7,0,5.4,0,8.3,0c0,8.2,0,16.4,0,24.7c4.3,0,8.2,0,12.4,0
			c0.5,2.1,0.2,4.1,0.2,6.3C1044.4,669.7,1037.5,669.7,1030.3,669.7z"/>
		<path class="st4" d="M117.2,638.7c2.7,0,5.3,0,8.1,0c0,10.4,0,20.7,0,31.1c-2.7,0-5.3,0-8.1,0
			C117.2,659.5,117.2,649.2,117.2,638.7z"/>
		<path class="st4" d="M71.8,638.7c2.6,0,5.2,0,7.9,0c0,10.3,0,20.6,0,31.1c-2.6,0-5.1,0-7.9,0C71.8,659.5,71.8,649.3,71.8,638.7z"
			/>
		<path class="st4" d="M318.3,669.8c-2.8,0-5.3,0-8,0c0-10.3,0-20.6,0-31.1c2.6-0.3,5.2-0.2,8-0.1
			C318.3,649.1,318.3,659.3,318.3,669.8z"/>
		<path class="st3" d="M12.6,700.8c0.2,0,0.4,0,0.5,0.1c-0.2,1,0.2,2.1-0.5,3C12.2,702.8,12.3,701.8,12.6,700.8z"/>
		<path class="st3" d="M12.6,706.7c0.4,0.2,0.4,0.5,0,0.7C12.6,707.2,12.6,707,12.6,706.7z"/>
		<path class="st3" d="M12.6,709.1c0.3,0.2,0.3,0.5,0,0.8c-0.1-0.2-0.1-0.3-0.2-0.5C12.5,709.3,12.6,709.2,12.6,709.1z"/>
		<path class="st0" d="M367.1,648.5c-0.4-0.5-0.4-1,0-1.9c0.1,0.7,0.2,1.2,0.3,1.7C367.3,648.4,367.2,648.4,367.1,648.5z"/>
	</g>
</g>
</svg>
